<?xml version="1.0" encoding="utf-8"?>
<!-- Generator: Adobe Illustrator 25.1.0, SVG Export Plug-In . SVG Version: 6.00 Build 0)  -->
<svg version="1.1" id="Layer_2" xmlns="http://www.w3.org/2000/svg" xmlns:xlink="http://www.w3.org/1999/xlink" x="0px" y="0px"
	 viewBox="0 0 1000 800" style="enable-background:new 0 0 1000 800;" xml:space="preserve">
<style type="text/css">
	.st0{fill:#DEF2F1;}
</style>
<g id="XMLID_1584_">
	<path id="XMLID_1646_" class="st0" d="M800,402.29c-175.64-159.47-317.38-81.4-317.38-81.4c1.24,0.02,2.48,0.05,3.71,0.09
		c22.22-3.85,44.16,1.63,61.52,13.82C651.27,379.15,697.4,514.18,697.4,514.18C738.57,428.6,800,402.29,800,402.29z M745.79,373.27
		c11.4,9.6,18.52,16.9,20.4,18.87c0.31,0.33,0.43,0.79,0.32,1.23l-4.82,19.37c-0.25,1.01-1.51,1.34-2.23,0.59
		c-6.84-7.06-13.62-13.64-20.34-19.79c-0.36-0.33-0.51-0.84-0.38-1.31l4.93-18.29C743.91,373,745.05,372.64,745.79,373.27z
		 M717.26,351.69c7.63,5.17,14.5,10.28,20.53,15.05c0.41,0.33,0.59,0.87,0.45,1.38l-4.79,17.79c-0.25,0.94-1.41,1.29-2.14,0.65
		c-6.74-5.88-13.41-11.33-19.99-16.36c-0.42-0.32-0.61-0.87-0.47-1.39l4.41-16.36C715.48,351.56,716.51,351.18,717.26,351.69z
		 M687.71,333.88c7.53,3.99,14.63,8.16,21.25,12.36c0.49,0.31,0.71,0.9,0.56,1.46l-4.24,15.75c-0.24,0.89-1.3,1.26-2.05,0.72
		c-7-5.07-13.89-9.68-20.65-13.87c-0.49-0.31-0.73-0.9-0.58-1.46l3.81-14.14C686.04,333.89,686.97,333.49,687.71,333.88z
		 M547.45,307.4c0.95-0.16,1.74,0.72,1.49,1.65c-0.15,0.56-0.65,0.95-1.23,0.97c-15.68,0.58-24.57,3.14-24.57,3.14
		C531.33,310.64,539.44,308.75,547.45,307.4z M541.94,320.76c-13.83-4.39-22.38-4.94-22.38-4.94c7.92,0.37,15.58,1.25,22.97,2.58
		c0.87,0.16,1.29,1.17,0.78,1.9C543.01,320.74,542.45,320.92,541.94,320.76z M556.13,308.27l0.36-1.34
		c0.14-0.52,0.59-0.91,1.13-0.97c8.46-0.96,16.79-1.32,24.97-1.17c0.86,0.02,1.47,0.84,1.25,1.67l-1.19,4.43
		c-0.17,0.64-0.8,1.05-1.46,0.96c-8.81-1.23-16.78-1.78-23.8-1.91C556.52,309.92,555.91,309.1,556.13,308.27z M572.1,332.42
		c-0.35,0.51-1.03,0.67-1.57,0.38c-7.28-3.82-14.05-6.79-20.13-9.1c-0.74-0.28-1.02-1.19-0.57-1.84l0.73-1.06
		c0.29-0.41,0.8-0.61,1.29-0.49c7.67,1.81,15.03,4.1,22.1,6.78c0.74,0.28,1.02,1.19,0.57,1.84L572.1,332.42z M589.41,311.71
		l1.49-5.53c0.16-0.61,0.74-1.02,1.37-0.98c8.12,0.55,16.07,1.58,23.82,3.03c0.76,0.14,1.23,0.9,1.03,1.64l-2.16,8.02
		c-0.19,0.71-0.94,1.13-1.65,0.92c-8.05-2.35-15.69-4.13-22.87-5.46C589.68,313.21,589.21,312.46,589.41,311.71z M598.05,348.62
		c-0.39,0.56-1.17,0.69-1.72,0.29c-6.27-4.56-12.37-8.5-18.21-11.89c-0.62-0.36-0.8-1.16-0.39-1.75l3.03-4.35
		c0.33-0.48,0.96-0.66,1.5-0.42c6.9,3.01,13.5,6.4,19.8,10.07c0.62,0.36,0.79,1.17,0.38,1.75L598.05,348.62z M621.62,368.22
		c-0.43,0.61-1.3,0.7-1.84,0.19c-5.59-5.27-11.13-10.02-16.56-14.29c-0.51-0.4-0.62-1.12-0.25-1.65l4.87-7
		c0.38-0.54,1.11-0.69,1.67-0.33c6.27,4.03,12.22,8.33,17.86,12.83c0.5,0.4,0.61,1.13,0.24,1.65L621.62,368.22z M644.3,330.1
		c-7.61-3.32-14.98-6.13-22.07-8.5c-0.66-0.22-1.04-0.92-0.85-1.59l2.4-8.9c0.18-0.69,0.88-1.11,1.58-0.95
		c7.85,1.81,15.47,4.02,22.85,6.54c0.66,0.22,1.03,0.92,0.85,1.6l-2.95,10.94C645.89,330.02,645.04,330.42,644.3,330.1z
		 M643.05,390.92c-0.46,0.66-1.42,0.7-1.94,0.09c-5.02-5.95-10.06-11.43-15.06-16.48c-0.41-0.42-0.47-1.07-0.13-1.55l6.39-9.2
		c0.41-0.59,1.25-0.7,1.8-0.23c5.74,4.94,11.13,10.05,16.17,15.23c0.41,0.42,0.46,1.07,0.13,1.55L643.05,390.92z M674.25,345.31
		c-7.28-4.22-14.4-7.96-21.34-11.27c-0.57-0.27-0.87-0.92-0.7-1.53l3.15-11.69c0.2-0.76,1.02-1.17,1.75-0.89
		c7.64,2.93,14.99,6.16,22.01,9.59c0.57,0.28,0.86,0.92,0.69,1.53l-3.63,13.46C675.96,345.35,675,345.74,674.25,345.31z
		 M662.47,416.5c-0.49,0.7-1.53,0.69-2.01-0.01c-4.51-6.6-9.07-12.76-13.65-18.53c-0.33-0.42-0.35-1.01-0.05-1.45l7.73-11.12
		c0.45-0.64,1.38-0.71,1.91-0.13c5.31,5.82,10.19,11.68,14.64,17.4c0.33,0.42,0.34,1.01,0.04,1.45L662.47,416.5z M679.98,444.84
		c-0.52,0.74-1.63,0.68-2.07-0.11c-4.03-7.23-8.14-14.05-12.3-20.49c-0.27-0.42-0.26-0.95,0.02-1.35l8.95-12.87
		c0.48-0.69,1.49-0.7,1.99-0.03c5.03,6.88,9.42,13.48,13.17,19.51c0.26,0.41,0.24,0.94-0.04,1.34L679.98,444.84z M696.2,477.02
		c-0.53,0.8-1.73,0.69-2.13-0.18c-3.75-8.28-7.6-16.13-11.53-23.59c-0.21-0.4-0.18-0.89,0.08-1.26l10-14.39
		c0.51-0.73,1.61-0.69,2.06,0.09c6.93,11.92,10.85,20.5,11.87,22.8c0.17,0.38,0.13,0.82-0.1,1.17L696.2,477.02z"/>
	<path id="XMLID_1628_" class="st0" d="M200,400.81c175.64,159.47,317.38,81.4,317.38,81.4c-1.24-0.02-2.48-0.05-3.71-0.09
		c-22.22,3.85-44.16-1.63-61.52-13.82C348.73,423.95,302.6,288.92,302.6,288.92C261.43,374.5,200,400.81,200,400.81z M254.21,429.83
		c-11.4-9.6-18.52-16.9-20.4-18.87c-0.31-0.33-0.43-0.79-0.32-1.23l4.82-19.37c0.25-1.01,1.51-1.34,2.23-0.59
		c6.84,7.06,13.62,13.64,20.34,19.79c0.36,0.33,0.51,0.84,0.38,1.31l-4.93,18.29C256.09,430.1,254.95,430.46,254.21,429.83z
		 M282.74,451.41c-7.63-5.17-14.5-10.28-20.53-15.05c-0.41-0.33-0.59-0.87-0.45-1.38l4.79-17.79c0.25-0.94,1.41-1.29,2.14-0.65
		c6.74,5.88,13.41,11.33,19.99,16.36c0.42,0.32,0.61,0.87,0.47,1.39l-4.41,16.36C284.52,451.54,283.49,451.92,282.74,451.41z
		 M312.29,469.22c-7.53-3.99-14.63-8.16-21.25-12.36c-0.49-0.31-0.71-0.9-0.56-1.46l4.24-15.75c0.24-0.89,1.3-1.26,2.05-0.72
		c7,5.07,13.89,9.68,20.65,13.87c0.49,0.31,0.73,0.9,0.58,1.46l-3.81,14.14C313.96,469.21,313.03,469.61,312.29,469.22z
		 M452.55,495.7c-0.95,0.16-1.74-0.72-1.49-1.65c0.15-0.56,0.65-0.95,1.23-0.97c15.68-0.58,24.57-3.14,24.57-3.14
		C468.67,492.46,460.56,494.35,452.55,495.7z M458.06,482.34c13.83,4.39,22.38,4.94,22.38,4.94c-7.92-0.37-15.58-1.25-22.97-2.58
		c-0.87-0.16-1.29-1.17-0.78-1.9C456.99,482.36,457.55,482.18,458.06,482.34z M443.87,494.83l-0.36,1.34
		c-0.14,0.52-0.59,0.91-1.13,0.97c-8.46,0.96-16.79,1.32-24.97,1.17c-0.86-0.02-1.47-0.84-1.25-1.67l1.19-4.43
		c0.17-0.64,0.8-1.05,1.46-0.96c8.81,1.23,16.78,1.78,23.8,1.91C443.48,493.18,444.09,494,443.87,494.83z M427.9,470.68
		c0.35-0.51,1.03-0.67,1.57-0.38c7.28,3.82,14.05,6.79,20.13,9.1c0.74,0.28,1.02,1.19,0.57,1.84l-0.73,1.06
		c-0.29,0.41-0.8,0.61-1.29,0.49c-7.67-1.81-15.03-4.1-22.1-6.78c-0.74-0.28-1.02-1.19-0.57-1.84L427.9,470.68z M410.59,491.39
		l-1.49,5.53c-0.16,0.61-0.74,1.02-1.37,0.98c-8.12-0.55-16.07-1.58-23.82-3.03c-0.76-0.14-1.23-0.9-1.03-1.64l2.16-8.02
		c0.19-0.71,0.94-1.13,1.65-0.92c8.05,2.35,15.69,4.13,22.87,5.46C410.32,489.89,410.79,490.64,410.59,491.39z M401.95,454.48
		c0.39-0.56,1.17-0.69,1.72-0.29c6.27,4.56,12.37,8.5,18.21,11.89c0.62,0.36,0.8,1.16,0.39,1.75l-3.03,4.35
		c-0.33,0.48-0.96,0.66-1.5,0.42c-6.9-3.01-13.5-6.4-19.8-10.07c-0.62-0.36-0.79-1.17-0.38-1.75L401.95,454.48z M378.38,434.88
		c0.43-0.61,1.3-0.7,1.84-0.19c5.59,5.27,11.13,10.02,16.56,14.29c0.51,0.4,0.62,1.12,0.25,1.65l-4.87,7
		c-0.38,0.54-1.11,0.69-1.67,0.33c-6.27-4.03-12.22-8.33-17.86-12.83c-0.5-0.4-0.61-1.13-0.24-1.65L378.38,434.88z M355.7,473
		c7.61,3.32,14.98,6.13,22.07,8.5c0.66,0.22,1.04,0.92,0.85,1.59l-2.4,8.9c-0.18,0.69-0.88,1.11-1.58,0.95
		c-7.85-1.81-15.47-4.02-22.85-6.54c-0.66-0.22-1.03-0.92-0.85-1.6l2.95-10.94C354.11,473.08,354.96,472.67,355.7,473z
		 M356.95,412.18c0.46-0.66,1.42-0.7,1.94-0.09c5.02,5.95,10.06,11.43,15.06,16.48c0.41,0.42,0.47,1.07,0.13,1.55l-6.39,9.2
		c-0.41,0.59-1.25,0.7-1.8,0.23c-5.74-4.94-11.13-10.05-16.17-15.23c-0.41-0.42-0.46-1.07-0.13-1.55L356.95,412.18z M325.75,457.79
		c7.28,4.22,14.4,7.96,21.34,11.27c0.57,0.27,0.87,0.92,0.7,1.53l-3.15,11.69c-0.2,0.76-1.02,1.17-1.75,0.89
		c-7.64-2.93-14.99-6.16-22.01-9.59c-0.57-0.28-0.86-0.92-0.69-1.53l3.63-13.46C324.04,457.75,325,457.36,325.75,457.79z
		 M337.53,386.6c0.49-0.7,1.53-0.69,2.01,0.01c4.51,6.6,9.07,12.76,13.65,18.53c0.33,0.42,0.35,1.01,0.05,1.45l-7.73,11.12
		c-0.45,0.64-1.38,0.71-1.91,0.13c-5.31-5.82-10.19-11.68-14.64-17.4c-0.33-0.42-0.34-1.01-0.04-1.45L337.53,386.6z M320.02,358.26
		c0.52-0.74,1.63-0.68,2.07,0.11c4.03,7.23,8.14,14.05,12.3,20.49c0.27,0.42,0.26,0.95-0.02,1.35l-8.95,12.87
		c-0.48,0.69-1.49,0.7-1.99,0.03c-5.03-6.88-9.42-13.48-13.17-19.51c-0.26-0.41-0.24-0.94,0.04-1.34L320.02,358.26z M303.8,326.08
		c0.53-0.8,1.73-0.69,2.13,0.18c3.75,8.28,7.6,16.13,11.53,23.59c0.21,0.4,0.18,0.89-0.08,1.26l-10,14.39
		c-0.51,0.73-1.61,0.69-2.06-0.09c-6.93-11.92-10.85-20.5-11.87-22.8c-0.17-0.38-0.13-0.82,0.1-1.17L303.8,326.08z"/>
	<path id="XMLID_1596_" class="st0" d="M581.11,382.18c-10.72-44.34-55.35-71.59-99.69-60.87c-44.34,10.72-71.59,55.35-60.87,99.69
		c10.72,44.34,55.35,71.59,99.69,60.87C564.58,471.16,591.83,426.52,581.11,382.18z M517.6,470.95
		c-38.31,9.26-76.87-14.29-86.13-52.59c-9.26-38.31,14.29-76.87,52.59-86.13c38.31-9.26,76.87,14.29,86.13,52.59
		C579.45,423.13,555.91,461.69,517.6,470.95z"/>
	<g id="XMLID_1227_">
		<path id="XMLID_1228_" class="st0" d="M329.74,326.83c28.49-66.99,94.9-113.96,172.29-113.96c69.87,0,130.79,38.3,162.93,95.04
			c4.56,1.56,9.11,3.22,13.65,5.01c6.77,2.66,13.52,5.57,20.25,8.74c-31.15-78.19-107.54-133.46-196.84-133.46
			c-79.99,0-149.61,44.34-185.65,109.78C319.38,305.21,323.82,315.22,329.74,326.83z"/>
		<path id="XMLID_1229_" class="st0" d="M671.67,479.07c-29.8,63.83-94.55,108.06-169.64,108.06c-67.59,0-126.81-35.84-159.7-89.55
			c-6.99-2.2-13.97-4.66-20.94-7.39c-4.55-1.79-9.1-3.7-13.64-5.72c32.63,74.94,107.33,127.34,194.28,127.34
			c77.75,0,145.7-41.9,182.54-104.35C681.81,500.66,677.53,490.77,671.67,479.07z"/>
	</g>
	<path id="XMLID_1585_" class="st0" d="M535.09,345.49c-30.65-18.72-70.68-9.04-89.39,21.61c-18.72,30.65-9.04,70.68,21.61,89.39
		c30.65,18.72,70.68,9.04,89.39-21.61C575.42,404.23,565.74,364.21,535.09,345.49z M540.04,376.68c7.41-1.79,14.87,2.76,16.66,10.18
		c1.79,7.41-2.76,14.87-10.18,16.66c-7.41,1.79-14.87-2.76-16.66-10.18C528.07,385.93,532.63,378.47,540.04,376.68z M448.57,369.9
		c3.97-6.51,12.47-8.56,18.98-4.59c6.51,3.97,8.56,12.47,4.59,18.98c-3.97,6.51-12.47,8.56-18.98,4.59
		C446.65,384.91,444.6,376.41,448.57,369.9z M458.21,424.87c-7.41,1.79-14.87-2.76-16.66-10.18c-1.79-7.41,2.76-14.87,10.18-16.66
		c7.41-1.79,14.87,2.76,16.66,10.18C470.18,415.62,465.63,423.08,458.21,424.87z M491.7,370.04c-7.41,1.79-14.87-2.76-16.66-10.18
		c-1.79-7.41,2.76-14.87,10.18-16.66c7.41-1.79,14.87,2.76,16.66,10.18C503.66,360.78,499.11,368.25,491.7,370.04z M468.26,451.33
		c-6.51-3.97-8.56-12.47-4.59-18.98c3.97-6.51,12.47-8.56,18.98-4.59c6.51,3.97,8.56,12.47,4.59,18.98
		C483.26,453.25,474.76,455.3,468.26,451.33z M494.05,395.59c2.57-4.2,8.05-5.53,12.26-2.96c4.2,2.57,5.53,8.05,2.96,12.26
		c-2.57,4.2-8.05,5.53-12.26,2.96C492.81,405.28,491.49,399.79,494.05,395.59z M515.61,373.79c-6.51-3.97-8.56-12.47-4.59-18.98
		c3.97-6.51,12.47-8.56,18.98-4.59c6.51,3.97,8.56,12.47,4.59,18.98C530.61,375.71,522.11,377.76,515.61,373.79z M513.05,458.35
		c-7.41,1.79-14.87-2.76-16.66-10.18c-1.79-7.41,2.76-14.87,10.18-16.66c7.41-1.79,14.87,2.76,16.66,10.18
		C525.01,449.1,520.46,456.56,513.05,458.35z M530.7,436.23c-6.51-3.97-8.56-12.47-4.59-18.98c3.97-6.51,12.47-8.56,18.98-4.59
		c6.51,3.97,8.56,12.47,4.59,18.98C545.71,438.15,537.21,440.21,530.7,436.23z"/>
</g>
</svg>
